<?xml version="1.0" encoding="UTF-8" standalone="no"?>
<!-- Created with Inkscape (http://www.inkscape.org/) -->

<svg
   xmlns:dc="http://purl.org/dc/elements/1.1/"
   xmlns:cc="http://creativecommons.org/ns#"
   xmlns:rdf="http://www.w3.org/1999/02/22-rdf-syntax-ns#"
   xmlns:svg="http://www.w3.org/2000/svg"
   xmlns="http://www.w3.org/2000/svg"
   xmlns:sodipodi="http://sodipodi.sourceforge.net/DTD/sodipodi-0.dtd"
   xmlns:inkscape="http://www.inkscape.org/namespaces/inkscape"
   width="497.42905"
   height="595.71423"
   viewBox="0 0 131.61143 157.61606"
   version="1.1"
   id="svg8"
   inkscape:version="0.92.2 (5c3e80d, 2017-08-06)"
   sodipodi:docname="qrPin.svg">
  <defs
     id="defs2" />
  <sodipodi:namedview
     id="base"
     pagecolor="#ffffff"
     bordercolor="#666666"
     borderopacity="1.0"
     inkscape:pageopacity="0.0"
     inkscape:pageshadow="2"
     inkscape:zoom="0.35"
     inkscape:cx="-252.07114"
     inkscape:cy="410.88302"
     inkscape:document-units="mm"
     inkscape:current-layer="layer1"
     showgrid="false"
     showborder="false"
     units="px"
     inkscape:snap-nodes="false"
     fit-margin-left="3"
     fit-margin-top="3"
     fit-margin-bottom="3"
     fit-margin-right="3"
     inkscape:window-width="1080"
     inkscape:window-height="675"
     inkscape:window-x="195"
     inkscape:window-y="44"
     inkscape:window-maximized="0" />
  <metadata
     id="metadata5">
    <rdf:RDF>
      <cc:Work
         rdf:about="">
        <dc:format>image/svg+xml</dc:format>
        <dc:type
           rdf:resource="http://purl.org/dc/dcmitype/StillImage" />
        <dc:title />
      </cc:Work>
    </rdf:RDF>
  </metadata>
  <g
     inkscape:label="Layer 1"
     inkscape:groupmode="layer"
     id="layer1"
     transform="translate(-39.194281,-69.691963)">
    <g
       style="fill:#ffffff;stroke:#3d3f6f;stroke-width:2;stroke-linecap:round;stroke-linejoin:round;stroke-opacity:1;fill-opacity:1"
       id="g829"
       transform="matrix(6.5011967,0,0,6.5011967,26.985638,70.485688)">
      <path
         id="path815"
         d="m 21,10 c 0,7 -9,13 -9,13 0,0 -9,-6 -9,-13 a 9,9 0 0 1 18,0 z"
         inkscape:connector-curvature="0"
         style="stroke:#3d3f6f;stroke-opacity:1;fill:#ffffff;fill-opacity:1" />
      <circle
         id="circle817"
         r="3"
         cy="10"
         cx="12"
         style="stroke:#3d3f6f;stroke-opacity:1;fill:#ffffff;fill-opacity:1" />
    </g>
    <rect
       style="opacity:1;vector-effect:none;fill:#ffffff;fill-opacity:1;stroke:#3d3f6f;stroke-width:7.41706467;stroke-linecap:butt;stroke-linejoin:miter;stroke-miterlimit:4;stroke-dasharray:none;stroke-dashoffset:0;stroke-opacity:1"
       id="rect842"
       width="100.30621"
       height="100.30621"
       x="54.846905"
       y="82.471893"
       ry="6.4162057e-05" />
    <path
       id="path831"
       d="M 65.866457,127.03449 H 99.409503 V 93.491446 H 65.866457 Z m 11.181017,-22.36203 h 11.181012 v 11.18101 H 77.047474 Z M 110.59052,93.491446 v 33.543044 h 33.54304 V 93.491446 Z m 22.36202,22.362024 h -11.18101 v -11.18101 h 11.18101 z M 65.866457,171.75854 H 99.409503 V 138.2155 H 65.866457 Z m 11.181017,-22.36203 h 11.181012 v 11.18102 H 77.047474 Z M 138.54305,138.2155 h 5.59051 v 22.36203 h -16.77152 v -5.59051 h -5.59051 v 16.77152 H 110.59052 V 138.2155 h 16.77152 v 5.59051 h 11.18101 z m 0,27.95253 h 5.59051 v 5.59051 h -5.59051 z m -11.18101,0 h 5.5905 v 5.59051 h -5.5905 z"
       inkscape:connector-curvature="0"
       style="fill:#537c8a;fill-opacity:1;stroke-width:0.17470333" />
  </g>
</svg>
